<svg xmlns="http://www.w3.org/2000/svg" viewBox="0 0 512 512" width="512" height="512"><path fill="#fff" d="M405.49 182.48c-1.32-41.08-32-65.48-58.76-72.44-3.06-.8-14.56-4.39-26.09-4.37H194.49c-8.7 0-18.19 2.48-27 4.91-33.45 9.29-59.85 39.67-59.83 81.88v126.16c0 58.75 43.37 84.19 77.46 85 48.34 1.08 96.76 1.36 145.09-.08a77.62 77.62 0 0 0 75.26-75.19q2.23-72.9.02-145.87zm-28 146.71c-3.68 29.89-23.66 47.05-54 47.59q-65.84 1.15-131.74 0c-33.07-.62-54.88-22.51-55.45-55.55q-1.12-65.84 0-131.72c.62-33 22.63-54.73 55.69-55.28q65.46-1.08 131 0c33.37.52 54.63 22.46 56.06 55.88.42 10.97 1.43 114.65-1.57 139.08z"/><path fill="#fff" fill-rule="evenodd" d="M257.58 178.3a77.3 77.3 0 0 0-77.25 77.16c-.12 42.48 34.47 77.07 77.16 77.14a77.15 77.15 0 0 0 .09-154.3zm-.32 126.79c-27.69 0-49.42-22.19-49.3-50.23.12-27.24 22.24-49 49.83-48.93s49.47 22.19 49.33 50.2c-.12 27.23-22.3 49.02-49.86 48.96zm98.4-129.74a18.48 18.48 0 0 1-17.8 18.49c-9.87.24-18.77-8.57-18.67-18.48a18.41 18.41 0 0 1 18.29-18 18.12 18.12 0 0 1 18.18 17.99z"/></svg>